#!OML:ASF F:\VICON\USERDATA\INSTALL\Justin_Nancy\Justin_Nancy.ASF
:FULLY-SPECIFIED
:DEGREES
48
root 9.70936 15.8088 -6.4989 1.4685 -21.5179 11.9069
lowerback 14.9929 1.99631 -8.23275
upperback 1.21738 1.12274 -1.53186
thorax -7.25665 0.766749 2.77874
lowerneck -17.0027 -4.74917 -12.3053
upperneck 12.4837 -4.96891 9.16816
head 7.1542 -2.18625 4.4591
rclavicle -4.85035e-014 -2.38542e-015
rhumerus -51.5605 10.0892 -96.7802
rradius 101.211
rwrist -1.28969
rhand -19.175 30.2947
rfingers 7.12502
rthumb 7.1362 0.435009
lclavicle -4.85035e-014 -2.38542e-015
lhumerus -51.1656 -7.48068 101.194
lradius 108.296
lwrist 27.651
lhand -12.9699 11.826
lfingers 7.12502
lthumb 13.1223 41.3932
rfemur -23.9291 -4.84567 15.3605
rtibia 102.771
rfoot -14.3375 -11.0793
rtoes 4.89734
lfemur -22.6421 -6.51536 -11.0891
ltibia 41.899
lfoot -24.4733 -5.36816
ltoes -21.1645
49
root 9.60134 15.8068 -6.01609 1.91623 -22.8468 10.5865
lowerback 15.4752 1.61005 -6.6405
upperback 1.44871 0.874911 -1.18547
thorax -7.22503 0.596758 2.30507
lowerneck -17.6027 -4.57062 -11.9696
upperneck 12.6051 -4.68126 8.81441
head 7.24479 -2.04987 4.31671
rclavicle 9.54166e-015 2.54444e-014
rhumerus -51.9334 9.29101 -97.3793
rradius 102.434
rwrist -2.25147
rhand -19.4336 30.5047
rfingers 7.12502
rthumb 6.88657 0.636753
lclavicle 9.54166e-015 2.54444e-014
lhumerus -48.8491 -9.25741 101.865
lradius 108.18
lwrist 26.5953
lhand -13.5502 9.63252
lfingers 7.12502
lthumb 12.5628 39.2348
rfemur -28.5705 -5.44763 17.7624
rtibia 103.805
rfoot -14.5452 -9.89595
rtoes 2.30881
lfemur -20.3472 -5.59534 -10.2087
ltibia 42.0593
lfoot -26.3803 -4.69526
ltoes -23.0485
50
root 9.49218 15.8048 -5.57527 2.92182 -22.9132 10.8985
lowerback 15.4655 0.741853 -6.67518
upperback 1.27485 -0.264976 -0.964798
thorax -7.3013 0.056655 2.80671
lowerneck -17.7309 -4.23688 -12.2143
upperneck 12.0234 -4.13069 8.88269
head 7.02332 -1.78391 4.43929
rclavicle -3.97569e-014 2.38542e-014
rhumerus -52.3442 9.54658 -97.8303
rradius 103.827
rwrist -3.2931
rhand -19.7722 30.5414
rfingers 7.12502
rthumb 6.55976 0.663026
lclavicle -3.97569e-014 2.38542e-014
lhumerus -46.7287 -10.1759 102.541
lradius 108.171
lwrist 25.5711
lhand -14.9354 8.9273
lfingers 7.12502
lthumb 11.2271 38.6069
rfemur -34.5668 -7.37976 18.8034
rtibia 104.339
rfoot -14.4523 -8.27638
rtoes 1.66422
lfemur -19.6299 -5.33578 -10.8207
ltibia 41.9691
lfoot -27.065 -4.22797
ltoes -24.376
51
root 9.39315 15.8281 -5.03828 3.25457 -23.9604 11.4805
lowerback 14.9999 0.0645186 -6.55338
upperback 1.23741 -1.09491 -0.879225
thorax -7.00082 -0.356709 2.99878
lowerneck -17.5297 -3.60415 -12.521
upperneck 11.6335 -3.21496 8.97932
head 6.76783 -1.35034 4.62517
rclavicle 6.1822e-014 1.59028e-014
rhumerus -53.1829 10.3704 -98.3116
rradius 105.221
rwrist -3.94884
rhand -19.9459 30.6414
rfingers 7.12502
rthumb 6.39203 0.757872
lclavicle 6.1822e-014 1.59028e-014
lhumerus -45.1656 -10.607 103.096
lradius 108.309
lwrist 25.2313
lhand -14.3225 8.14488
lfingers 7.12502
lthumb 11.8181 37.7914
rfemur -39.3481 -8.25763 19.2694
rtibia 103.826
rfoot -14.9928 -6.26519
rtoes -0.934372
lfemur -17.4935 -5.62208 -12.3109
ltibia 41.5888
lfoot -27.4447 -2.0626
ltoes -26.7209
52
root 9.26224 15.8459 -4.49606 2.84077 -26.6624 10.6208
lowerback 15.6924 0.0738511 -5.79356
upperback 1.48606 -0.970409 -0.509655
thorax -7.13414 -0.315776 2.94867
lowerneck -17.7785 -2.95146 -12.2946
upperneck 11.8864 -2.30955 8.63971
head 6.7803 -0.931365 4.58004
rclavicle -2.10712e-014 -1.43125e-014
rhumerus -54.1669 11.1587 -98.9221
rradius 106.668
rwrist -4.1322
rhand -19.6269 30.6336
rfingers 7.12502
rthumb 6.70004 0.759567
lclavicle -2.10712e-014 -1.43125e-014
lhumerus -43.9375 -11.0536 103.227
lradius 108.69
lwrist 25.6642
lhand -12.2329 8.5289
lfingers 7.12502
lthumb 13.8326 38.049
rfemur -42.4353 -6.57819 21.6966
rtibia 102.3
rfoot -15.4812 -5.22163
rtoes -4.19235
lfemur -13.3874 -4.7246 -12.5665
ltibia 40.907
lfoot -27.5626 0.415214
ltoes -29.9133
53
root 9.13533 15.8898 -3.93198 2.03428 -28.4839 12.476
lowerback 15.6322 -0.171909 -6.93174
upperback 1.40263 -1.5159 -0.79391
thorax -7.12021 -0.55014 3.40196
lowerneck -17.8424 -2.4087 -12.1457
upperneck 12.0584 -1.54384 8.24083
head 6.75657 -0.591823 4.50897
rclavicle -3.93594e-014 -8.74653e-015
rhumerus -55.3242 12.0713 -99.3859
rradius 107.996
rwrist -3.80138
rhand -19.2072 30.5699
rfingers 7.12502
rthumb 7.10514 0.709169
lclavicle -3.93594e-014 -8.74653e-015
lhumerus -43.1961 -11.4267 103.512
lradius 109.123
lwrist 28.0015
lhand -12.6963 7.38946
lfingers 7.12502
lthumb 13.3859 36.9394
rfemur -45.8429 -6.26131 21.019
rtibia 100.255
rfoot -16.6531 -2.98353
rtoes -5.30752
lfemur -10.141 -4.98129 -15.7161
ltibia 39.7893
lfoot -26.5619 2.79601
ltoes -32.843
54
root 8.97801 15.9487 -3.38233 1.71254 -30.2074 14.2455
lowerback 15.1523 -0.479675 -8.29035
upperback 1.08977 -2.13425 -0.880047
thorax -7.08137 -0.803393 4.19316
lowerneck -18.2375 -1.86149 -11.9038
upperneck 12.6834 -0.710795 7.48999
head 6.93142 -0.250375 4.32112
rclavicle 3.93594e-014 -3.57812e-014
rhumerus -56.8613 13.3184 -99.6931
rradius 109.475
rwrist -3.22062
rhand -18.8841 30.5559
rfingers 7.12502
rthumb 7.41698 0.705953
lclavicle 3.93594e-014 -3.57812e-014
lhumerus -42.7193 -11.0105 103.523
lradius 110.078
lwrist 29.9824
lhand -11.3098 8.41351
lfingers 7.12502
lthumb 14.722 37.8707
rfemur -49.6145 -5.72177 20.9829
rtibia 97.4446
rfoot -17.5463 -1.25263
rtoes -8.122
lfemur -7.67551 -4.84154 -18.4351
ltibia 38.5803
lfoot -24.7415 3.66863
ltoes -35.4422
55
root 8.81209 16.0244 -2.85059 1.45691 -31.7636 15.2468
lowerback 15.1387 -0.687084 -8.89412
upperback 0.988672 -2.52005 -0.920194
thorax -7.11042 -0.96834 4.56787
lowerneck -18.9771 -1.50717 -11.3647
upperneck 13.1941 -0.17953 6.80463
head 7.16637 -0.0304723 4.07636
rclavicle -7.15625e-014 -4.77083e-015
rhumerus -57.9092 13.9936 -99.8543
rradius 110.855
rwrist -2.4549
rhand -18.6203 30.8298
rfingers 7.12502
rthumb 7.67161 0.988998
lclavicle -7.15625e-014 -4.77083e-015
lhumerus -42.5083 -11.2634 103.592
lradius 110.98
lwrist 29.7965
lhand -11.48 8.91629
lfingers 7.12502
lthumb 14.5581 38.3854
rfemur -52.5529 -4.88849 21.8832
rtibia 93.7327
rfoot -17.6409 -0.826439
rtoes -14.0732
lfemur -4.90747 -4.40569 -20.2434
ltibia 36.8839
lfoot -22.4669 3.19221
ltoes -36.1718
56
root 8.62762 16.0913 -2.36194 1.68708 -32.9683 16.5807
lowerback 14.6909 -0.632505 -9.71988
upperback 0.765817 -2.58337 -1.30739
thorax -7.07951 -0.974806 4.61391
lowerneck -19.327 -1.63041 -10.687
upperneck 12.9973 -0.463501 6.67601
head 7.18551 -0.134872 3.88962
rclavicle 2.94201e-014 3.65764e-014
rhumerus -58.1722 13.0773 -100.052
rradius 111.729
rwrist -1.63095
rhand -18.4813 31.2369
rfingers 7.12502
rthumb 7.80581 1.40096
lclavicle 2.94201e-014 3.65764e-014
lhumerus -42.3609 -12.7285 103.374
lradius 111.551
lwrist 30.1562
lhand -11.3976 8.7528
lfingers 7.12502
lthumb 14.6374 38.2162
rfemur -55.9066 -3.97685 22.6798
rtibia 89.6453
rfoot -17.3552 -0.703229
rtoes -18.211
lfemur -3.15851 -3.26087 -21.7485
ltibia 35.0026
lfoot -19.5133 0.8571
ltoes -34.9836
57
root 8.43236 16.1675 -1.74735 -0.278917 -35.5099 18.4523
lowerback 14.6702 -0.164942 -10.3723
upperback 0.982427 -2.11573 -1.94309
thorax -6.90716 -0.758691 4.20043
lowerneck -18.903 -1.66292 -10.5624
upperneck 12.7302 -0.600175 6.78841
head 7.03959 -0.184968 3.88388
rclavicle 1.82882e-014 3.97569e-014
rhumerus -58.7844 12.4755 -100.249
rradius 112.282
rwrist -1.10285
rhand -18.1437 31.0917
rfingers 7.12502
rthumb 8.13163 1.26819
lclavicle 1.82882e-014 3.97569e-014
lhumerus -42.8371 -13.5987 103.203
lradius 112.028
lwrist 30.7727
lhand -10.7534 8.3753
lfingers 7.12502
lthumb 15.2581 37.7926
rfemur -56.2854 -2.62134 22.3146
rtibia 85.0623
rfoot -18.4358 -7.85077
rtoes -32.4705
lfemur 1.02369 -2.72611 -24.7163
ltibia 32.7994
lfoot -15.6458 1.34115
ltoes -39.8848
58
root 8.21794 16.2348 -1.16914 -1.94393 -37.2327 20.6298
lowerback 14.5973 -0.516184 -12.0728
upperback 0.679594 -2.86711 -1.79658
thorax -7.00272 -1.0513 5.45144
lowerneck -17.7063 -0.971264 -11.845
upperneck 12.3618 0.531516 6.83614
head 6.61306 0.290689 4.2119
rclavicle -6.55989e-014 5.00937e-014
rhumerus -60.2798 14.3677 -100.381
rradius 112.717
rwrist -1.24095
rhand -18.0018 31.0104
rfingers 7.12502
rthumb 8.26864 1.19217
lclavicle -6.55989e-014 5.00937e-014
lhumerus -43.6305 -11.7556 103.458
lradius 112.344
lwrist 31.1127
lhand -10.9422 7.76472
lfingers 7.12502
lthumb 15.0762 37.1957
rfemur -56.9565 -2.1078 22.1052
rtibia 80.1667
rfoot -17.1069 1.68506
rtoes -18.1662
lfemur 3.86145 -2.13212 -27.2744
ltibia 30.9603
lfoot -11.2357 -1.49305
ltoes -35.7427
